<svg xmlns="http://www.w3.org/2000/svg" viewBox="0 0 1024 1024">
  <!-- 背景渐变 -->
  <defs>
    <linearGradient id="bgGradient" x1="0%" y1="0%" x2="100%" y2="100%">
      <stop offset="0%" style="stop-color:#07c160"/>
      <stop offset="100%" style="stop-color:#1989fa"/>
    </linearGradient>
    <linearGradient id="checkGradient" x1="0%" y1="0%" x2="100%" y2="100%">
      <stop offset="0%" style="stop-color:#ffffff"/>
      <stop offset="100%" style="stop-color:#e6f7ed"/>
    </linearGradient>
  </defs>
  
  <!-- 背景圆角矩形 -->
  <rect x="64" y="64" width="896" height="896" rx="180" ry="180" fill="url(#bgGradient)"/>
  
  <!-- 日历/清单主体 -->
  <rect x="220" y="280" width="584" height="520" rx="60" ry="60" fill="#ffffff" opacity="0.95"/>
  
  <!-- 日历顶部条 -->
  <rect x="220" y="280" width="584" height="100" rx="60" ry="60" fill="#07c160"/>
  <rect x="220" y="340" width="584" height="40" fill="#07c160"/>
  
  <!-- 清单项目 1 - 已完成 -->
  <circle cx="320" cy="460" r="40" fill="#07c160"/>
  <path d="M295 460 L310 475 L345 440" stroke="#ffffff" stroke-width="12" fill="none" stroke-linecap="round" stroke-linejoin="round"/>
  <rect x="400" y="440" width="320" height="20" rx="10" fill="#969799"/>
  
  <!-- 清单项目 2 - 已完成 -->
  <circle cx="320" cy="580" r="40" fill="#07c160"/>
  <path d="M295 580 L310 595 L345 560" stroke="#ffffff" stroke-width="12" fill="none" stroke-linecap="round" stroke-linejoin="round"/>
  <rect x="400" y="560" width="280" height="20" rx="10" fill="#969799"/>
  
  <!-- 清单项目 3 - 待完成 -->
  <circle cx="320" cy="700" r="40" fill="none" stroke="#1989fa" stroke-width="12"/>
  <rect x="400" y="680" width="360" height="20" rx="10" fill="#323233"/>
  
  <!-- 小装饰点 -->
  <circle cx="800" cy="220" r="30" fill="#ffffff" opacity="0.3"/>
  <circle cx="860" cy="280" r="20" fill="#ffffff" opacity="0.2"/>
</svg>